<?xml version="1.0" encoding="utf-8"?>
<!-- Generator: Adobe Illustrator 22.1.0, SVG Export Plug-In . SVG Version: 6.00 Build 0)  -->
<svg xmlns="http://www.w3.org/2000/svg" xmlns:xlink="http://www.w3.org/1999/xlink" version="1.1" id="layer_1" x="0px" y="0px" viewBox="0 0 1400 1400" style="enable-background:new 0 0 1400 1400;" xml:space="preserve">
<style type="text/css">
	.st0{fill:#15f2e4;}
	.st1{fill:#00A793;}
	.st2{fill:#06181C;}
	.st3{fill:#15f2e4;}
	.st4{fill:#004a55;}
	.st5{fill:#15f2e4;}
	.st6{fill:#F5F6E6;}
	.st7{fill:#ff6f61;}
	.st8{fill:#15f2e4;}
	.st9{fill:#C0C1A7;}
</style>
<g>
	
	<polygon class="st1" points="70,1008.2 94.2,1253.3 1243.6,984.6 1106.3,855.8 352.3,855.8  "/>
	<polygon class="st2" points="352.3,0 193.3,0 352.3,149.1  "/>
	<polygon class="st2" points="0,1046 70,1008.2 0,300.8  "/>
	<polygon class="st3" points="352.3,149.1 193.3,0 0,0 0,300.8 70,1008.2 352.3,855.8  "/>
	<polygon class="st4" points="1400,0 352.3,0 352.3,149.1 1106.3,855.8 1400,855.8  "/>
	<polygon class="st5" points="352.3,855.8 1106.3,855.8 352.3,149.1  "/>
	<g>
		<polygon class="st6" points="1243.6,984.6 866.1,984.6 488.7,984.6 94.2,1253.3 866.1,1253.3 1337.9,1253.3   "/>
		<path class="st2" d="M1145.5,1079c0,0,91.9-0.2,75.9,39.9s-160,58.5-188,59.3l94.9,75H673l-77.3-58.5l15.7-48.3    c0,0-48-3.6-52-27.5s46-63.2,46-63.2L1145.5,1079z"/>
		<path class="st2" d="M1107.6,955.9c0,0-89.5-10.2-143.3,13s-14.8,98.1-14.8,98.1l113,4.7L1107.6,955.9z"/>
		<path class="st1" d="M1161.2,969.9c-43.5-38.3-167.2,2.3-245.5,104.1v71.3c0,0,162.5,9.4,206.9-24.6    C1167,1086.8,1219.6,1021.3,1161.2,969.9z"/>
		<path class="st2" d="M1162.9,968.8l-0.3-0.2l-0.3-0.1c-9-3.6-19.5-5.4-31.4-5.4c-29.4,0-65,10.9-100.2,30.8    c-38.5,21.7-73.5,52.2-101.3,88.3l-0.4,0.5v65.2l1.9,0.1c11.1,0.4,22.5,0.5,33.8,0.5c0,0,0,0,0,0c57,0,130.8-4.5,159.1-26.1    c14.9-11.3,63.5-51.9,65.2-98.2C1189.8,1003.5,1181,984.9,1162.9,968.8z"/>
		<path class="st1" d="M563.2,969.9c43.5-38.3,167.2,2.3,245.5,104.1v71.3c0,0-162.5,9.4-206.9-24.6    C557.4,1086.8,504.8,1021.3,563.2,969.9z"/>
		<path class="st2" d="M613.4,955.8c-17,0.7-31.2,5.3-41.2,14.1c-58.5,51.4-5.8,116.9,38.6,150.8c27.8,21.2,101.9,25.5,153.5,25.7    c26.1-0.1,44.5-1.2,44.5-1.2v-71.3C751.5,999.6,670.1,957.9,613.4,955.8z"/>
		<path class="st7" d="M1007.2,653.1c-15.1-23.8-36.4-23-65.9-37.5l-10.3,6.3l-96.5-49.1c0,0-61.1,36.5-89.2,47.9    c-28.1,11.4-35.1,12.1-35.1,12.1c-42.4,13-58.5,24.9-66.3,56.6c-7.8,31.7-7.8,149.1-13,208.4s18.7,108.4,18.7,108.4l60.5-6.6v6.6    H983v-85.8c11.4,25.1,22.4,42.6,25.8,26.7c7.8-37,7.2-98.6,6.7-136C1015,773.6,1022.2,676.9,1007.2,653.1z"/>
		<path class="st2" d="M726.6,553.2c-7.3,33.3,29.1,73.3,23.4,88.9s-18.7,53,5.7,79c24.4,26,2.6,59.8,2.6,59.8    c42.6-35.9,42.1-109.1,42.1-109.1s5.2-48.3-9.4-82.1c-14.6-33.8-21.6-77.5-21.6-77.5L726.6,553.2z"/>
		<path class="st2" d="M941.3,522.1c20.1,43.7,19.6,92-7.4,132c-27,40-55.9-7.6-55.9-7.6s-19.5-32.5-8.6-55.8    c10.9-23.4,35.9-86.8,35.9-86.8L941.3,522.1z"/>
		<path class="st6" d="M886,709.5h-22.3v-69.7H886c12.5,0,22.6,10.1,22.6,22.6v24.5C908.6,699.4,898.4,709.5,886,709.5z     M876.9,696.3h9.1c5.2,0,9.4-4.2,9.4-9.4v-24.5c0-5.2-4.2-9.4-9.4-9.4h-9.1V696.3z"/>
		<path class="st2" d="M1009.6,947c7.8-37,7.1-98.3,6.6-135.8c-0.5-37.4,6.9-134.6-8.1-158.4c-15.1-23.8-37.1-23.7-66.6-38.3    l-10.4,7.2l-86.8-44.2l-7.3,0.3l-25.2,8c-7.8,4.5-16.9,9.6-26.2,14.6l-35.6,41.5c-33.5,17.9-67.5,13-66,28    c1.5,14.9,13.5,82.9,13.5,82.9S683,709,670,693c2.5,36,20.5,70.5,20.5,70.5s-19-25-25.5-14.5s13.5,37,18.5,55S673,913.7,673,913.7    l310,76.9v-70.3C994.4,945.4,1006.3,963,1009.6,947z"/>
		<path class="st6" d="M889.5,448h-55h-55l-10.9,68.6c0,42.9,6.6,81.5,65.9,116.1c59.2-34.7,65.9-73.3,65.9-116.1L889.5,448z"/>
		<path class="st2" d="M841.5,448c-43.7,75.2-115,105.2-115,105.2c-14-48.7,18.7-78.7,18.7-78.7s29.6-103.7,101.7-83.8L841.5,448z"/>
		<path class="st2" d="M841.5,448c47.2,13.6,33.1,60.8,58.9,72.1l40.9,1.9c0,0-8.6-150.4-94.3-131.3"/>
		<path class="st6" d="M834.5,626.5c-24,0-43.5,3.4-43.5,7.7v99.3h87v-99.3C878,629.9,858.6,626.5,834.5,626.5z"/>
		<path class="st6" d="M960.4,694.7c0,0-30-46.8-36.6-46.4c-6.6,0.4-41.1,7.6-40.1,21.7c0,0-7.6,10.4,1.2,20.2c0,0,19.5-3.1,22.2-1    c2.7,2.1,6,8,6,8s-26.9-1.2-26.3,13.8c-6.6,2.1-8.7,11.5-0.8,14.7c2.7,16.8-3.1,42.8,14,51c16.8,44.6,9,165.2,104.6,192.2    c15.1-66.5,2.1-92-18.2-118.5c-20.3-26.5-44.7-53.5-49.9-85.2C939.1,726.8,960.4,694.7,960.4,694.7z"/>
		<polygon class="st1" points="785,913.7 575,913.7 595.8,1178.2 785,1178.2 974.3,1178.2 995.1,913.7   "/>
		<rect x="595.8" y="1178.2" class="st8" width="378.8" height="16.5"/>
		<ellipse class="st9" cx="834.5" cy="733.5" rx="43.5" ry="7.7"/>
		<path class="st7" d="M838.1,595c0,0-2,2.5-3.6,2.5s-3.6-2.5-3.6-2.5s-6.3,7.1-10.6,8.6h3.6c0,0,2.1,9.9,10.6,10.2    c8.6-0.3,10.6-10.2,10.6-10.2h3.6C844.4,602,838.1,595,838.1,595z M834.5,605.2c0,0-2.4-0.1-4.2-1.6l2.1-1.7l2.2,0.4l2.4-0.4    l1.8,1.7C836.9,605.1,834.5,605.2,834.5,605.2z"/>
		<polygon class="st6" points="995.1,913.7 595.8,1178.2 575,913.7   "/>
		<g>
			<path class="st2" d="M795.1,553.2c12.4,0.4,26.6-1.7,26.6-1.7c2.6-10.9,2.1-21.4,2.1-21.4c-3.9-0.7-8.2-1.1-12.6-1.3L795.1,553.2     z"/>
			<path class="st1" d="M795.1,553.2c-4.6-0.1-9.1-0.6-12.4-1.7c-2.8-7.9-2.8-21.4-2.8-21.4s15.9-2,31.3-1.3L795.1,553.2z"/>
			<path class="st1" d="M858.2,552.7c-6.3-0.5-10.9-1.2-10.9-1.2c-2.6-10.9-2.1-21.4-2.1-21.4c9-1.6,20-1.6,28.8-1.2L858.2,552.7z"/>
			<path class="st2" d="M874,528.9c8.7,0.4,15.2,1.2,15.2,1.2s0,13.5-2.8,21.4c-7.2,2.3-19.3,1.9-28.1,1.2L874,528.9z"/>
		</g>
		<path class="st7" d="M742.8,757.7c-8.1,0.3-29.8,29.8-19.3,36.3s120.9,11.5,117.2,3.5C837,789.5,768.8,756.7,742.8,757.7z"/>
	</g>
	<g>
		<circle class="st2" cx="1162" cy="210.5" r="132.4"/>
		<circle class="st3" cx="1162" cy="210.5" r="115.7"/>
		<circle class="st2" cx="1162" cy="210.5" r="6.1"/>
		<rect x="1157.2" y="103.2" class="st2" width="9.5" height="16.7"/>
		<rect x="1108.9" y="116.9" transform="matrix(0.866 -0.5 0.5 0.866 87.9841 571.6198)" class="st2" width="3.5" height="9.4"/>
		<rect x="1071.3" y="154.5" transform="matrix(0.5 -0.866 0.866 0.5 398.6605 1008.9112)" class="st2" width="3.5" height="9.4"/>
		
			<rect x="1057.6" y="205.8" transform="matrix(4.634166e-11 -1 1 4.634166e-11 848.7839 1269.8545)" class="st2" width="3.5" height="9.4"/>
		
			<rect x="1071.3" y="257.2" transform="matrix(-0.5 -0.866 0.866 -0.5 1382.8275 1322.1062)" class="st2" width="3.5" height="9.4"/>
		
			<rect x="1108.9" y="294.8" transform="matrix(-0.866 -0.5 0.5 -0.866 1922.7787 1114.0895)" class="st2" width="3.5" height="9.4"/>
		
			<rect x="1160.3" y="308.5" transform="matrix(-1 -9.057745e-11 9.057745e-11 -1 2323.9578 626.3901)" class="st2" width="3.5" height="9.4"/>
		
			<rect x="1211.6" y="294.8" transform="matrix(-0.866 0.5 -0.5 -0.866 2413.7856 -47.8894)" class="st2" width="3.5" height="9.4"/>
		
			<rect x="1249.2" y="257.2" transform="matrix(-0.5 0.866 -0.866 -0.5 2103.1091 -690.5003)" class="st2" width="3.5" height="9.4"/>
		
			<rect x="1262.9" y="205.8" transform="matrix(-1.358666e-10 1 -1 -1.358666e-10 1475.174 -1054.1033)" class="st2" width="3.5" height="9.4"/>
		<rect x="1249.2" y="154.5" transform="matrix(0.5 0.866 -0.866 0.5 763.3184 -1003.6953)" class="st2" width="3.5" height="9.4"/>
		<rect x="1211.6" y="116.9" transform="matrix(0.866 0.5 -0.5 0.866 223.3672 -590.3591)" class="st2" width="3.5" height="9.4"/>
		
			<rect x="1058.2" y="202.2" transform="matrix(4.418516e-11 -1 1 4.418516e-11 852.429 1273.4996)" class="st2" width="9.5" height="16.7"/>
		
			<rect x="1157.2" y="301.2" transform="matrix(-1 -8.990066e-11 8.990066e-11 -1 2323.9578 619.0999)" class="st2" width="9.5" height="16.7"/>
		
			<rect x="1256.2" y="202.2" transform="matrix(-1.346596e-10 1 -1 -1.346596e-10 1471.5288 -1050.4583)" class="st2" width="9.5" height="16.7"/>
	</g>
</g>
</svg>
